# xmcd
#
# Track frame offsets:
#	150
#	782
#	18384
#	33519
#	52585
#	55137
#	65545
#	68655
#	83729
#	98884
#	111372
#	127581
#	141629
#	156694
#	167607
#	186811
#	203816
#	220289
#	235819
#	239051
#	256810
#	272835
#	275490
#	287085
#	298503
#	324806
#	326953
#	327708
#	328325
#	329377
#
# Disc length: 4398 seconds
#
# Revision: 1
# Processed by: cddbd v1.5.2PL0 Copyright (c) Steve Scherf et al.
# Submitted via: audiograbber 1.83.01
#
DISCID=c6112c1e
DTITLE=Country Hotdisc - Country Hotdisc 013
DYEAR=2000
DGENRE=Country
TTITLE0=Indledning - Talk
TTITLE1=One True Love - Charlie Landsborough
TTITLE2=Stuff That Matters - Tara Lyn Hart
TTITLE3=Women In Prison - Evie Sands
TTITLE4=Talking About The Song - Narvel Felts
TTITLE5=Pink And Back Days - Narvel Felts
TTITLE6=Talking - Tony Lewis
TTITLE7=You Are The Dream - Tony Lewis
TTITLE8=Unstable Man - Chip Taylor
TTITLE9=Do What You Do Do Well - Scott Perry
TTITLE10=A Stranger To Me Now - Peter Baxter
TTITLE11=Classified - Colin Blakie
TTITLE12=Corpus Christi Caling Me - Lou Hobbs
TTITLE13=Snowbird - Michael Engelsh
TTITLE14=She´s Gone - Jamie Ryan
TTITLE15=Loving You Feeling - Poul Baily
TTITLE16=I´m On My Way - Up The Junction
TTITLE17=Little Miss Hurricane - Ragning Flames
TTITLE18=Talking About The Song - George Allison
TTITLE19=Let The Man Cry - George Allison
TTITLE20=Feet Back On The The Ground - Peter Bryden
TTITLE21=Talking About The Next Song - Ragnar
TTITLE22=Alone And Foresaken - Ragnar
TTITLE23=Let The Mystery Be - Lee Markwell and Wildwood
TTITLE24=Radio Interview - Chip Taylor
TTITLE25=Alan Jackson Talking About Pop A Top - Fra Country Hotdisc 12
TTITLE26=Spot - Tony Lewis
TTITLE27=Spot - Tony Lewis
TTITLE28=Spot - Paul Bailey
TTITLE29=Spot - Paul Bailey
EXTD=
EXTT0=
EXTT1=
EXTT2=
EXTT3=
EXTT4=
EXTT5=
EXTT6=
EXTT7=
EXTT8=
EXTT9=
EXTT10=
EXTT11=
EXTT12=
EXTT13=
EXTT14=
EXTT15=
EXTT16=
EXTT17=
EXTT18=
EXTT19=
EXTT20=
EXTT21=
EXTT22=
EXTT23=
EXTT24=
EXTT25=
EXTT26=
EXTT27=
EXTT28=
EXTT29=
PLAYORDER=
